<svg xmlns="http://www.w3.org/2000/svg" viewBox="0 0 720 504" width="24" height="16">
  <rect width="720" height="504" fill="#009739"/>
  <path d="M360,92 L92,252 L360,412 L628,252 Z" fill="#fedd00"/>
  <circle cx="360" cy="252" r="105" fill="#002776"/>
  <path d="M259.326,283.098 A105,105 0 0 0 259.326,220.902 L255,220.902 A105,105 0 0 1 255,283.098 Z" fill="#fff"/>
  <path d="M255,252 A105,105 0 0 1 360,147 A105,105 0 0 1 465,252 A105,105 0 0 1 360,357 A105,105 0 0 1 255,252 Z" stroke="#fff" stroke-width="1.5" fill="none" transform="rotate(-12, 360, 252)"/>
</svg>
